<?xml version="1.0" encoding="utf-8"?>
<!-- Generator: Adobe Illustrator 27.9.0, SVG Export Plug-In . SVG Version: 6.00 Build 0)  -->
<svg version="1.1" xmlns="http://www.w3.org/2000/svg" xmlns:xlink="http://www.w3.org/1999/xlink" x="0px" y="0px"
	 viewBox="0 0 56.38 56.69" style="enable-background:new 0 0 56.38 56.69;" xml:space="preserve">
<style type="text/css">
	.st0{fill:#ECEEF6;}
	.st1{fill:#154873;}
	.st2{fill:#202B51;}
	.st3{clip-path:url(#SVGID_00000029037795616422847220000013162493358723243953_);}
	.st4{fill:url(#SVGID_00000128451745296470714830000010640500327725565592_);}
	.st5{fill:url(#SVGID_00000050629574009244831490000010031478496585613753_);}
	.st6{clip-path:url(#SVGID_00000029037795616422847220000013162493358723243953_);fill:#F9F9F9;}
	.st7{clip-path:url(#SVGID_00000029037795616422847220000013162493358723243953_);fill:#CACCCF;}
	.st8{opacity:0.86;clip-path:url(#SVGID_00000029037795616422847220000013162493358723243953_);fill:#154873;}
	.st9{opacity:0.25;clip-path:url(#SVGID_00000029037795616422847220000013162493358723243953_);}
	.st10{fill:url(#SVGID_00000158711919868313915170000010433086171625999753_);}
	.st11{fill:url(#SVGID_00000182509189626052027220000013082952170738780576_);}
	.st12{fill:url(#SVGID_00000125571426018819993830000008683119866434054830_);}
	.st13{fill:url(#SVGID_00000114058784823003317640000016417626454703315854_);}
	.st14{fill:url(#SVGID_00000077322471378036281650000009232924224397674390_);}
	.st15{fill:url(#SVGID_00000129181674889426914860000003431672161545541771_);}
	.st16{fill:url(#SVGID_00000090290084288814720850000005890445563036315020_);}
	.st17{fill:url(#SVGID_00000140697656210928300470000010502270990119237787_);}
	.st18{fill:url(#SVGID_00000059299042929172769810000009544607841981744815_);}
	.st19{fill:url(#SVGID_00000031191065274123365200000015037980353156868235_);}
	.st20{fill:url(#SVGID_00000037694009622707846080000002246359468011259835_);}
	.st21{fill:url(#SVGID_00000024684859791234580370000016160536494137952423_);}
	.st22{fill:url(#SVGID_00000047768499093933443140000009615846232957851016_);}
	.st23{fill:url(#SVGID_00000142152928647011530120000004226049291679769789_);}
	.st24{fill:url(#SVGID_00000098191499333373132770000009965537703648494222_);}
	.st25{fill:url(#SVGID_00000038391368800032219850000012742414774514246024_);}
	.st26{fill:#0089CB;}
	.st27{opacity:0.96;fill-rule:evenodd;clip-rule:evenodd;fill:url(#SVGID_00000157271252368166586800000008112416216049603490_);}
	.st28{fill:#1D1D1B;}
	.st29{fill:url(#SVGID_00000109719896490340157230000001916055219911441289_);}
	.st30{opacity:0.31;fill:#191F38;}
	.st31{fill:#808080;}
	.st32{fill:url(#SVGID_00000114758007009283722180000015684927379988326291_);}
	.st33{fill:none;stroke:#0089CB;stroke-width:3;stroke-miterlimit:10;}
	.st34{fill:#FFFFFF;}
	.st35{fill-rule:evenodd;clip-rule:evenodd;fill:#FFFFFF;}
	.st36{fill:none;stroke:#24B0E3;stroke-miterlimit:10;}
	.st37{fill:none;stroke:#E5E5E5;stroke-miterlimit:10;}
	.st38{fill:none;stroke:#BFBFBF;stroke-miterlimit:10;}
	.st39{fill-rule:evenodd;clip-rule:evenodd;fill:#154873;}
	.st40{fill:#E5E5E5;}
	.st41{fill:#8C8C8C;}
	.st42{fill:none;stroke:#D9D9D9;stroke-miterlimit:10;}
	.st43{fill:#D9D9D9;}
	.st44{fill:#666666;}
	.st45{fill:url(#SVGID_00000126299899886629025490000008472087670497188249_);}
	.st46{opacity:0.86;fill:#154873;}
	.st47{fill-rule:evenodd;clip-rule:evenodd;fill:none;stroke:#E4E4E4;stroke-miterlimit:10;}
	.st48{fill:none;stroke:#FFFFFF;stroke-miterlimit:10;}
	.st49{fill-rule:evenodd;clip-rule:evenodd;fill:none;stroke:#FFFFFF;stroke-miterlimit:10;}
	.st50{fill-rule:evenodd;clip-rule:evenodd;fill:#0089CB;}
	.st51{fill:#24B0E3;}
</style>
<g id="Guías">
</g>
<g id="Capa_5">
	<g>
		<path class="st26" d="M10.48,38.48c3.16,0,6.11-0.54,8.92-1.73c1.98-0.84,3.94-0.8,5.9,0.04c3.56,1.52,7.13,3.03,10.68,4.57
			c2.3,1,2.86,3.88,1.09,5.55c-0.81,0.76-1.79,1.01-2.87,0.83c-3.36-0.56-6.72-1.14-10.07-1.71c-0.66-0.11-1.07-0.56-0.98-1.08
			c0.09-0.5,0.58-0.8,1.23-0.69c3.32,0.55,6.64,1.13,9.96,1.68c0.93,0.16,1.69-0.28,1.94-1.09c0.25-0.79-0.12-1.52-1.02-1.91
			c-3.63-1.56-7.26-3.11-10.89-4.65c-1.33-0.57-2.7-0.63-4.03-0.03c-2.92,1.32-5.99,1.91-9.18,1.99c-0.19,0-0.39,0.02-0.63,0.03
			c-0.01,0.18-0.04,0.35-0.04,0.52c0,2.55,0.01,5.11-0.01,7.66c0,0.41,0.12,0.56,0.52,0.67c6.89,1.86,13.78,3.74,20.67,5.62
			c2.01,0.55,3.92,0.27,5.65-0.89c5.43-3.65,10.84-7.33,16.25-11.01c1.1-0.75,1.36-2.12,0.64-3.19c-0.7-1.05-2-1.3-3.14-0.57
			c-2.55,1.62-5.08,3.25-7.62,4.88c-0.15,0.09-0.29,0.2-0.45,0.28c-0.47,0.23-0.92,0.12-1.17-0.29c-0.27-0.43-0.18-0.92,0.27-1.22
			c0.92-0.62,1.86-1.21,2.79-1.81c0.29-0.19,0.57-0.43,0.89-0.56c1.75-0.71,2.14-2.22,2.26-3.86c0.34-4.53-2.93-8.61-7.31-9.17
			c-4.73-0.61-8.85,2.37-9.7,7.01c-0.09,0.48-0.1,0.97-0.13,1.45c-0.04,0.67-0.34,1.03-0.87,1.02c-0.53-0.01-0.9-0.43-0.89-1.08
			c0.03-2.61,0.84-4.96,2.63-6.88c2.99-3.21,6.68-4.27,10.84-2.94c4.2,1.33,6.58,4.36,7.15,8.73c0.14,1.03,0.02,2.09,0.02,3.11
			c0.08-0.04,0.29-0.15,0.5-0.27c1.94-1.1,4.24-0.56,5.44,1.28c1.18,1.81,0.75,4.14-1.1,5.42c-2.96,2.06-5.96,4.06-8.94,6.08
			c-2.34,1.58-4.68,3.16-7.01,4.75c-2.4,1.63-4.99,2.09-7.79,1.34c-6.61-1.78-13.22-3.56-19.83-5.34c-0.2-0.05-0.41-0.1-0.66-0.16
			c0,0.8,0,1.56,0,2.32c0,0.86-0.22,1.12-1.07,1.2c-2.73,0.26-5.47,0.52-8.2,0.77c-0.83,0.08-1.21-0.34-1.11-1.15
			c0.82-6.06,1.64-12.12,2.46-18.17c0.15-1.1,0.35-1.26,1.47-1.26c1.81,0,3.62,0,5.44,0c0.81,0,1.08,0.27,1.09,1.09
			C10.49,36.56,10.48,37.49,10.48,38.48z M1.85,53.2c2.3-0.21,4.52-0.41,6.75-0.62c0-5.45,0-10.84,0-16.24c-1.5,0-2.97,0-4.47,0
			C3.37,41.94,2.62,47.51,1.85,53.2z"/>
		<path class="st26" d="M28.27,25.96c0,1.68,0.02,3.35-0.01,5.03c-0.02,1.27-0.72,2.25-1.83,2.66c-1.13,0.41-2.48,0.14-3.18-0.81
			c-0.36-0.49-0.55-1.14-0.67-1.75c-0.11-0.56,0.26-0.92,0.77-0.96c0.51-0.04,0.86,0.26,0.95,0.81c0.01,0.06,0.01,0.12,0.01,0.17
			c0.06,0.54,0.37,0.85,0.9,0.92c0.52,0.07,0.93-0.14,1.15-0.62c0.11-0.24,0.15-0.53,0.15-0.79c0.01-3.24,0-6.47,0.02-9.71
			c0-0.38-0.14-0.6-0.43-0.82c-2.18-1.6-5.3-1.47-7.36,0.3c-0.93,0.8-1.05,0.8-1.96,0.01c-2.19-1.91-5.46-1.9-7.65,0
			c-0.1,0.09-0.21,0.18-0.31,0.27c-0.3,0.28-0.69,0.4-1,0.15C7.57,20.66,7.32,20.28,7.34,20c0.13-1.57,0.2-3.16,0.56-4.68
			c1.88-7.94,8.43-13.88,16.53-15.1c10.6-1.6,20.88,5.81,22.68,16.35c0.18,1.05,0.23,2.13,0.34,3.19c0.04,0.44-0.07,0.81-0.51,1.02
			c-0.44,0.21-0.77,0.02-1.11-0.26c-2.36-2-5.41-2.21-7.65-0.36c-1.15,0.94-1.41,0.89-2.5,0c-1.99-1.64-4.94-1.58-7.01-0.05
			c-0.29,0.22-0.42,0.45-0.41,0.83C28.28,22.61,28.27,24.28,28.27,25.96z M30.37,17.22c-0.16-3.79-0.4-7.65-1.35-11.43
			C28.7,4.56,28.2,3.37,27.7,2.2c-0.23-0.54-0.54-0.54-0.82-0.02c-0.36,0.66-0.68,1.36-0.91,2.07c-0.93,2.99-1.3,6.08-1.54,9.19
			c-0.1,1.3-0.16,2.6-0.23,3.77c1.1,0.54,2.11,1.03,3.09,1.5C28.26,18.25,29.26,17.76,30.37,17.22z M22.42,17.18
			c0.32-5.04,0.54-10.01,2.34-14.82c-0.22,0.1-0.37,0.15-0.5,0.22c-1.51,0.78-2.68,1.93-3.64,3.3c-2.37,3.38-3.37,7.22-3.82,11.26
			c-0.09,0.81,0.05,1.33,0.81,1.63c0.04,0.01,0.07,0.02,0.14,0.04C19.12,17.82,20.66,17.23,22.42,17.18z M32.16,17.18
			c1.62,0.05,3.07,0.49,4.37,1.4c0.16,0.11,0.49,0.17,0.64,0.09c0.31-0.19,0.79-0.28,0.67-0.87c-0.12-0.59-0.12-1.2-0.2-1.8
			c-0.48-3.51-1.46-6.85-3.46-9.82c-0.97-1.44-2.15-2.67-3.69-3.52c-0.19-0.11-0.4-0.18-0.66-0.31
			C31.62,7.18,31.84,12.15,32.16,17.18z M34.05,3.14c3.61,4.15,4.99,9.09,5.5,14.38c2.07-0.53,4.03-0.35,5.92,0.68
			C44.93,11.33,39.8,5.22,34.05,3.14z M15.13,17.51c0.49-5.34,1.82-10.27,5.5-14.4C14.75,5.05,8.69,13.13,9.26,18.17
			C11.11,17.15,13.06,16.99,15.13,17.51z"/>
		<path class="st26" d="M40.36,40.8c-0.11,1.09-0.32,1.4-0.96,1.38c-0.61-0.02-0.8-0.31-0.86-1.36c-0.15-0.07-0.33-0.14-0.5-0.23
			c-1.08-0.54-1.62-1.42-1.68-2.61c-0.03-0.58,0.27-0.93,0.78-0.97c0.56-0.05,0.88,0.23,0.97,0.84c0.14,0.93,0.79,1.47,1.58,1.3
			c0.61-0.13,1.07-0.67,1.06-1.23c-0.01-0.59-0.51-1.16-1.11-1.26c-0.25-0.04-0.5-0.04-0.75-0.09c-1.36-0.25-2.33-1.28-2.51-2.64
			c-0.17-1.27,0.52-2.55,1.73-3.1c0.36-0.16,0.48-0.34,0.48-0.73c-0.01-0.55,0.31-0.84,0.82-0.85c0.54-0.02,0.89,0.28,0.9,0.84
			c0.01,0.35,0.13,0.49,0.44,0.62c1.08,0.47,1.64,1.33,1.76,2.49c0.07,0.64-0.22,1.06-0.75,1.12c-0.57,0.06-0.89-0.21-1-0.87
			c-0.19-1.12-1.2-1.66-2.04-1.08c-0.47,0.32-0.71,0.78-0.57,1.36c0.14,0.62,0.65,1,1.37,1.05c1.58,0.11,2.68,1.08,2.94,2.59
			c0.22,1.29-0.41,2.55-1.59,3.16C40.71,40.64,40.53,40.72,40.36,40.8z"/>
	</g>
</g>
</svg>
