<?xml version="1.0" encoding="utf-8"?>
<!-- Generator: Adobe Illustrator 27.9.0, SVG Export Plug-In . SVG Version: 6.00 Build 0)  -->
<svg version="1.1" xmlns="http://www.w3.org/2000/svg" xmlns:xlink="http://www.w3.org/1999/xlink" x="0px" y="0px"
	 viewBox="0 0 65.5 56.45" style="enable-background:new 0 0 65.5 56.45;" xml:space="preserve">
<style type="text/css">
	.st0{fill:#ECEEF6;}
	.st1{fill:#154873;}
	.st2{fill:#202B51;}
	.st3{clip-path:url(#SVGID_00000164475122541031247710000011624850296246255798_);}
	.st4{fill:url(#SVGID_00000073685316458091380650000006799115074163583360_);}
	.st5{fill:url(#SVGID_00000119805669211514363790000004983188054171939987_);}
	.st6{clip-path:url(#SVGID_00000164475122541031247710000011624850296246255798_);fill:#F9F9F9;}
	.st7{clip-path:url(#SVGID_00000164475122541031247710000011624850296246255798_);fill:#CACCCF;}
	.st8{opacity:0.86;clip-path:url(#SVGID_00000164475122541031247710000011624850296246255798_);fill:#154873;}
	.st9{opacity:0.25;clip-path:url(#SVGID_00000164475122541031247710000011624850296246255798_);}
	.st10{fill:url(#SVGID_00000033336319348125805440000008172899083917118630_);}
	.st11{fill:url(#SVGID_00000025409219656807577360000015773601030160263353_);}
	.st12{fill:url(#SVGID_00000106106188987994114220000016325237994519731111_);}
	.st13{fill:url(#SVGID_00000000204913429401658090000002183805772287294855_);}
	.st14{fill:url(#SVGID_00000099639847386570953990000008921173743972894623_);}
	.st15{fill:url(#SVGID_00000160192967785384410840000006218441553303387270_);}
	.st16{fill:url(#SVGID_00000088106773283413357000000004877927817657886598_);}
	.st17{fill:url(#SVGID_00000098196727825709552780000011240851955964349341_);}
	.st18{fill:url(#SVGID_00000079484877770476074450000017289114259453756065_);}
	.st19{fill:url(#SVGID_00000065071829344077996770000005411727504123320973_);}
	.st20{fill:url(#SVGID_00000127764258764370310410000008147213577330226070_);}
	.st21{fill:url(#SVGID_00000096054055545857741350000005658419371504584073_);}
	.st22{fill:url(#SVGID_00000035527176687478706460000009582036689480234638_);}
	.st23{fill:url(#SVGID_00000136375648144593280980000001851112635751919801_);}
	.st24{fill:url(#SVGID_00000005974026148442898920000012647190960690940584_);}
	.st25{fill:url(#SVGID_00000103972262742656558650000000994493403994279300_);}
	.st26{fill:#0089CB;}
	.st27{opacity:0.96;fill-rule:evenodd;clip-rule:evenodd;fill:url(#SVGID_00000002364807189331937540000010128074704137400225_);}
	.st28{fill:#1D1D1B;}
	.st29{fill:url(#SVGID_00000089563634722988239100000006465860628932688038_);}
	.st30{opacity:0.31;fill:#191F38;}
	.st31{fill:#808080;}
	.st32{fill:url(#SVGID_00000117658304624193671870000014007846367951614642_);}
	.st33{fill:none;stroke:#0089CB;stroke-width:3;stroke-miterlimit:10;}
	.st34{fill:#FFFFFF;}
	.st35{fill-rule:evenodd;clip-rule:evenodd;fill:#FFFFFF;}
	.st36{fill:none;stroke:#24B0E3;stroke-miterlimit:10;}
	.st37{fill:none;stroke:#E5E5E5;stroke-miterlimit:10;}
	.st38{fill:none;stroke:#BFBFBF;stroke-miterlimit:10;}
	.st39{fill-rule:evenodd;clip-rule:evenodd;fill:#154873;}
	.st40{fill:#E5E5E5;}
	.st41{fill:#8C8C8C;}
	.st42{fill:none;stroke:#D9D9D9;stroke-miterlimit:10;}
	.st43{fill:#D9D9D9;}
	.st44{fill:#666666;}
	.st45{fill:url(#SVGID_00000038380778706924115130000010680581397561636764_);}
	.st46{opacity:0.86;fill:#154873;}
	.st47{fill-rule:evenodd;clip-rule:evenodd;fill:none;stroke:#E4E4E4;stroke-miterlimit:10;}
	.st48{fill:none;stroke:#FFFFFF;stroke-miterlimit:10;}
	.st49{fill-rule:evenodd;clip-rule:evenodd;fill:none;stroke:#FFFFFF;stroke-miterlimit:10;}
	.st50{fill-rule:evenodd;clip-rule:evenodd;fill:#0089CB;}
	.st51{fill:#24B0E3;}
</style>
<g id="Guías">
</g>
<g id="Capa_5">
	<g>
		<path class="st40" d="M59.37,50.84c-0.59,1.25-1.13,2.4-1.68,3.58c0.1,0.01,0.32,0.03,0.55,0.03c2.01,0,4.02-0.01,6.02,0.01
			c0.89,0,1.3,0.38,1.24,1.11c-0.04,0.5-0.31,0.79-0.8,0.86c-0.24,0.03-0.48,0.02-0.72,0.02c-20.8,0-41.59,0-62.39,0
			c-0.17,0-0.33,0-0.5,0c-0.72-0.03-1.06-0.35-1.06-0.98c0-0.62,0.34-0.99,1.06-1c1.7-0.02,3.39-0.01,5.09-0.01
			c0.28,0,0.57,0,0.82,0c-0.57-1.19-1.13-2.36-1.73-3.62c-0.28-0.03-0.73-0.05-1.17-0.12c-2.31-0.37-3.99-2.26-4.06-4.6
			c-0.03-1-0.04-2.01,0.01-3.01c0.02-0.31,0.22-0.78,0.45-0.87c0.49-0.2,0.53-0.5,0.52-0.93c-0.02-0.62,0.05-1.25-0.02-1.86
			c-0.13-1.08,0.35-1.86,1.06-2.61c2.63-2.78,5.8-4.73,9.34-6.11c6.46-2.51,13.14-3.25,19.99-2.28c3.9,0.55,7.39,2.19,10.71,4.24
			c1.1,0.68,2.2,1.35,3.3,2.02c1.5,0.91,3.12,1.33,4.9,1.37c3.38,0.09,6.71,0.6,9.88,1.84c1.73,0.68,3.33,1.57,4.69,2.84
			c0.28,0.27,0.52,0.7,0.57,1.09C65.96,46.46,63.65,49.79,59.37,50.84z M18.61,48.79c0.14,0.01,0.28,0.03,0.42,0.03
			c8.85,0,17.69,0,26.54,0.01c0.49,0,0.62-0.18,0.73-0.62c0.76-2.96,3.38-5.02,6.37-5.05c2.95-0.03,5.59,1.98,6.42,4.89
			c0.07,0.25,0.14,0.49,0.21,0.76c0.14-0.02,0.23-0.02,0.32-0.04c2.33-0.62,3.91-2.74,4.02-5.26c0.04-0.93-0.22-1.52-1.03-2.05
			c-2.61-1.69-5.49-2.56-8.52-2.96c-1.63-0.22-3.3-0.48-4.92-0.36c-3.12,0.23-6.2,0.86-9.32,1.08c-4.67,0.33-9.35,0.6-14.03,0.61
			c-7.2,0.01-14.37-0.57-21.5-1.65c-0.82-0.12-1.24,0.25-1.24,1.08c-0.01,1.22,0.03,2.44-0.02,3.66c-0.01,0.33-0.22,0.86-0.46,0.94
			c-0.63,0.2-0.63,0.6-0.6,1.09c0.02,0.41,0,0.81,0.03,1.22c0.12,1.88,2.07,2.97,3.44,2.55c0.85-3.39,3.22-5.45,6.4-5.57
			C14.32,43.07,17.66,44.61,18.61,48.79z M25.17,29.94c-7.15,0.32-13.82,1.83-19.74,6.35c6.69,0.89,13.18,1.4,19.74,1.49
			C25.17,35.16,25.17,32.61,25.17,29.94z M17.1,54.39c10.11,0,20.33,0,30.58,0c-0.37-0.61-0.74-1.13-1.01-1.71
			c-0.27-0.57-0.45-1.2-0.68-1.84c-9.1,0-18.24,0-27.22,0C18.18,52.08,17.64,53.23,17.1,54.39z M44.6,36.63
			c-5.38-3.53-10.77-6.75-17.45-6.61c0,2.6,0,5.14,0,7.76C32.99,37.8,38.77,37.39,44.6,36.63z M11.99,54.45
			c2.58,0.01,4.67-2.04,4.69-4.61c0.02-2.59-2.11-4.72-4.69-4.71c-2.56,0.01-4.63,2.1-4.64,4.67C7.36,52.39,9.41,54.45,11.99,54.45z
			 M52.58,54.45c2.59,0.01,4.68-2.03,4.7-4.6c0.03-2.58-2.09-4.72-4.67-4.72c-2.56,0-4.65,2.09-4.65,4.66
			C47.95,52.38,50,54.44,52.58,54.45z"/>
		<path class="st40" d="M65.37,10.55c0,1.67,0.06,3.35-0.01,5.02c-0.1,2.27-1.14,4.13-2.83,5.6c-1.17,1.02-2.43,1.93-3.66,2.88
			c-1.52,1.18-2.91,2.47-3.73,4.28c-0.32,0.72-1.34,0.74-1.66,0.01c-1.03-2.36-2.96-3.81-4.95-5.25c-1.04-0.75-2.05-1.58-2.97-2.47
			c-1.54-1.5-2.34-3.36-2.35-5.52c-0.02-3.13-0.01-6.27-0.02-9.4c0-0.64,0.21-1.12,0.89-1.16c2.57-0.17,4.73-1.42,6.89-2.64
			c0.85-0.48,1.69-1,2.48-1.58c0.63-0.46,1.13-0.41,1.74,0.03c2.19,1.55,4.48,2.93,7.05,3.75c0.65,0.21,1.35,0.31,2.03,0.4
			c0.85,0.11,1.14,0.37,1.15,1.24c0.01,1.6,0,3.2,0,4.81C65.41,10.55,65.39,10.55,65.37,10.55z M45,6.47c0,3.04-0.05,6.05,0.02,9.06
			c0.04,1.54,0.78,2.86,1.92,3.89c0.94,0.85,1.94,1.63,2.96,2.37c1.54,1.11,3,2.29,4.17,3.8c0.04,0.05,0.11,0.07,0.18,0.11
			c1.25-1.69,2.88-2.93,4.55-4.14c0.93-0.67,1.83-1.38,2.67-2.16c1.1-1.02,1.84-2.31,1.88-3.83c0.08-2.94,0.06-5.88,0.06-8.82
			c0-0.13-0.22-0.34-0.37-0.39c-0.59-0.2-1.2-0.31-1.79-0.51c-2.32-0.81-4.42-2.03-6.46-3.37c-0.29-0.19-0.5-0.35-0.88-0.1
			C51.15,4.18,48.32,5.85,45,6.47z"/>
		<path class="st40" d="M52.55,15.54c1.74-1.76,3.37-3.4,5-5.04c0.79-0.8,1.32-0.91,1.81-0.4c0.46,0.48,0.34,1.03-0.4,1.77
			c-1.81,1.81-3.61,3.61-5.42,5.42c-0.74,0.74-1.13,0.74-1.87,0.01c-0.71-0.71-1.42-1.41-2.12-2.13c-0.59-0.6-0.66-1.17-0.21-1.61
			c0.47-0.46,0.98-0.39,1.61,0.25C51.49,14.35,51.99,14.93,52.55,15.54z"/>
	</g>
</g>
</svg>
