<?xml version="1.0" encoding="utf-8"?>
<!-- Generator: Adobe Illustrator 27.9.0, SVG Export Plug-In . SVG Version: 6.00 Build 0)  -->
<svg version="1.1" xmlns="http://www.w3.org/2000/svg" xmlns:xlink="http://www.w3.org/1999/xlink" x="0px" y="0px"
	 viewBox="0 0 56.45 56.45" style="enable-background:new 0 0 56.45 56.45;" xml:space="preserve">
<style type="text/css">
	.st0{fill:#ECEEF6;}
	.st1{fill:#154873;}
	.st2{fill:#202B51;}
	.st3{clip-path:url(#SVGID_00000062172419644249468310000015472308722357230244_);}
	.st4{fill:url(#SVGID_00000058571753406107051540000009081488481311574678_);}
	.st5{fill:url(#SVGID_00000026845661165483217320000007660209894745910713_);}
	.st6{clip-path:url(#SVGID_00000062172419644249468310000015472308722357230244_);fill:#F9F9F9;}
	.st7{clip-path:url(#SVGID_00000062172419644249468310000015472308722357230244_);fill:#CACCCF;}
	.st8{opacity:0.86;clip-path:url(#SVGID_00000062172419644249468310000015472308722357230244_);fill:#154873;}
	.st9{opacity:0.25;clip-path:url(#SVGID_00000062172419644249468310000015472308722357230244_);}
	.st10{fill:url(#SVGID_00000081613046319834619500000011731986113732006820_);}
	.st11{fill:url(#SVGID_00000127044641970124724660000001285210960307361933_);}
	.st12{fill:url(#SVGID_00000080888166011357194030000012802065037837956278_);}
	.st13{fill:url(#SVGID_00000000211198134205808500000012195777376735067268_);}
	.st14{fill:url(#SVGID_00000182510380460476988090000016461953914047786928_);}
	.st15{fill:url(#SVGID_00000019665504004124144040000011830855420910872716_);}
	.st16{fill:url(#SVGID_00000155839104907590405590000012934516608571217320_);}
	.st17{fill:url(#SVGID_00000168809414204490736160000015675744199623856772_);}
	.st18{fill:url(#SVGID_00000052811477260029395350000015537671689608167101_);}
	.st19{fill:url(#SVGID_00000146473868313751026990000004014354134355213458_);}
	.st20{fill:url(#SVGID_00000048494497146083521570000017619816995327651766_);}
	.st21{fill:url(#SVGID_00000029003935708461460770000010270456175039141819_);}
	.st22{fill:url(#SVGID_00000121991546650548762560000011015744714190449552_);}
	.st23{fill:url(#SVGID_00000044137718603251704880000004314988398422968479_);}
	.st24{fill:url(#SVGID_00000111894420306993597700000004299585963665676958_);}
	.st25{fill:url(#SVGID_00000170254810227017360050000010792421026863399348_);}
	.st26{fill:#0089CB;}
	.st27{opacity:0.96;fill-rule:evenodd;clip-rule:evenodd;fill:url(#SVGID_00000150812196253326636780000004112340398830281404_);}
	.st28{fill:#1D1D1B;}
	.st29{fill:url(#SVGID_00000031909090229058727520000008936507400835248543_);}
	.st30{opacity:0.31;fill:#191F38;}
	.st31{fill:#808080;}
	.st32{fill:url(#SVGID_00000005975506583635354590000001040128930352485821_);}
	.st33{fill:none;stroke:#0089CB;stroke-width:3;stroke-miterlimit:10;}
	.st34{fill:#FFFFFF;}
	.st35{fill-rule:evenodd;clip-rule:evenodd;fill:#FFFFFF;}
	.st36{fill:none;stroke:#24B0E3;stroke-miterlimit:10;}
	.st37{fill:none;stroke:#E5E5E5;stroke-miterlimit:10;}
	.st38{fill:none;stroke:#BFBFBF;stroke-miterlimit:10;}
	.st39{fill-rule:evenodd;clip-rule:evenodd;fill:#154873;}
	.st40{fill:#E5E5E5;}
	.st41{fill:#8C8C8C;}
	.st42{fill:none;stroke:#D9D9D9;stroke-miterlimit:10;}
	.st43{fill:#D9D9D9;}
	.st44{fill:#666666;}
	.st45{fill:url(#SVGID_00000021105152203669044160000016722044959708882604_);}
	.st46{opacity:0.86;fill:#154873;}
	.st47{fill-rule:evenodd;clip-rule:evenodd;fill:none;stroke:#E4E4E4;stroke-miterlimit:10;}
	.st48{fill:none;stroke:#FFFFFF;stroke-miterlimit:10;}
	.st49{fill-rule:evenodd;clip-rule:evenodd;fill:none;stroke:#FFFFFF;stroke-miterlimit:10;}
	.st50{fill-rule:evenodd;clip-rule:evenodd;fill:#0089CB;}
	.st51{fill:#24B0E3;}
</style>
<g id="Guías">
</g>
<g id="Capa_5">
	<g>
		<path class="st26" d="M9.41,22.58c0-0.3,0-0.53,0-0.76c0-6.21,0-12.43,0-18.64C9.41,1.11,10.53,0,12.62,0c9.78,0,19.56,0,29.33,0
			c2.08,0,3.2,1.11,3.2,3.18c0,16.7,0,33.4,0,50.09c0,2.04-1.13,3.17-3.16,3.17c-9.82,0-19.64,0-29.45,0
			c-1.99,0-3.13-1.15-3.14-3.14c0-3.74,0-7.49,0-11.23c0-0.21,0-0.42,0-0.69c-1.6,0-3.14-0.04-4.68,0.01
			c-0.84,0.03-1.56-0.14-2.23-0.67c-0.6-0.47-1.26-0.86-1.9-1.27C0.19,39.21,0,38.88,0,38.4c0.01-4.27,0.01-8.54,0-12.82
			c0-0.56,0.23-0.91,0.76-1.12c1.46-0.57,2.9-1.17,4.36-1.74c0.25-0.1,0.53-0.13,0.8-0.14C7.05,22.57,8.19,22.58,9.41,22.58z
			 M11.29,30.1c0,0.27,0,0.46,0,0.65c0,7.49,0,14.97,0,22.46c0,1.08,0.27,1.36,1.35,1.36c9.76,0,19.52,0,29.27,0
			c1.09,0,1.36-0.27,1.36-1.34c0-16.66,0-33.31,0-49.97c0-1.11-0.26-1.37-1.39-1.37c-9.74,0-19.48,0-29.21,0
			c-1.12,0-1.38,0.26-1.38,1.38c0,6.21,0,12.42,0,18.64c0,0.21,0,0.42,0,0.68c0.25,0,0.44,0,0.64,0c1.65,0,3.3-0.06,4.94,0.03
			c0.73,0.04,1.52,0.26,2.15,0.64c1.42,0.84,1.99,2.58,1.54,4.16c-0.45,1.56-1.89,2.68-3.53,2.7C15.14,30.12,13.26,30.1,11.29,30.1z
			 M4.73,32.02c1.68-0.27,2.66-1.21,2.79-2.65c0.08-0.9,0.35-1.14,1.27-1.14c2.64,0,5.29,0,7.93,0c1.24,0,2.09-0.78,2.09-1.89
			c-0.01-1.09-0.86-1.86-2.06-1.87c-3.51,0-7.01,0-10.52,0c-0.21,0-0.43,0.02-0.63,0.1C4.48,25,3.35,25.44,2.23,25.92
			c-0.16,0.07-0.33,0.33-0.33,0.5c-0.02,3.76-0.02,7.52,0,11.29c0,0.19,0.15,0.43,0.3,0.56c1.12,0.99,2.39,1.46,3.91,1.28
			c0.91-0.11,1.84-0.02,2.76-0.02c0.17,0,0.34-0.02,0.5-0.03c0-3.11,0-6.18,0-9.36c-0.97,2.53-2.7,3.88-4.63,3.69
			C4.73,33.23,4.73,32.65,4.73,32.02z"/>
		<path class="st26" d="M56.45,29.14c-0.66,0-1.24,0-1.86,0c0-2.8,0-5.58,0-8.4c-0.63,0-1.23,0-1.9,0c0,0.22,0,0.44,0,0.67
			c0,8.58,0.04,17.16-0.04,25.74c-0.01,1.38-0.47,2.76-0.78,4.13c-0.32,1.43-0.71,2.85-1.06,4.27c-0.12,0.51-0.4,0.87-0.95,0.88
			c-0.55,0.01-0.83-0.34-0.96-0.86c-0.6-2.41-1.21-4.82-1.8-7.23c-0.05-0.19-0.07-0.39-0.07-0.58c0-10.58,0-21.16,0-31.74
			c0-1.22,0.69-2.22,1.79-2.65c1.06-0.42,2.23-0.17,3.03,0.64c0.53,0.54,0.81,1.2,0.82,1.95c0.01,0.92,0,1.84,0,2.85
			c0.84,0,1.65,0,2.46,0c1,0,1.3,0.29,1.3,1.29c0,2.82,0,5.64,0,8.46C56.45,28.74,56.45,28.91,56.45,29.14z M50.76,47.01
			c0-8.79,0-17.53,0-26.27c-0.63,0-1.23,0-1.81,0c0,8.78,0,17.51,0,26.27C49.56,47.01,50.14,47.01,50.76,47.01z M50.79,18.81
			c0-1,0.03-1.96-0.01-2.91c-0.02-0.51-0.38-0.81-0.89-0.83c-0.49-0.02-0.89,0.26-0.92,0.72c-0.06,1-0.02,2.01-0.02,3.02
			C49.58,18.81,50.15,18.81,50.79,18.81z M50.53,48.96c-0.49,0-0.88,0-1.33,0c0.21,0.82,0.4,1.6,0.6,2.38c0.04,0,0.09,0,0.13,0
			C50.13,50.56,50.32,49.78,50.53,48.96z"/>
		<path class="st26" d="M17.88,11.76c0-1.04,0.01-2.08-0.01-3.12c-0.01-0.54,0.21-0.89,0.7-1.1c2.74-1.21,5.47-2.44,8.21-3.62
			c0.29-0.12,0.72-0.13,1,0C30.53,5.1,33.26,6.33,36,7.54c0.49,0.22,0.7,0.57,0.7,1.1c-0.01,1.98,0.02,3.96-0.01,5.94
			c-0.03,2.41-0.93,4.47-2.71,6.11c-1.95,1.79-3.94,3.53-5.92,5.28c-0.57,0.51-0.98,0.5-1.55,0c-1.95-1.73-3.91-3.45-5.83-5.2
			c-1.85-1.68-2.77-3.8-2.79-6.3C17.87,13.56,17.88,12.66,17.88,11.76z M27.29,24.14c1.86-1.66,3.71-3.27,5.51-4.92
			c1.07-0.98,1.8-2.23,1.89-3.68c0.13-2.07,0.1-4.15,0.1-6.22c0-0.14-0.22-0.34-0.39-0.41c-2.24-1.02-4.49-2.02-6.75-3
			c-0.21-0.09-0.54-0.08-0.76,0.02c-2.24,0.98-4.47,1.99-6.71,2.96c-0.35,0.15-0.44,0.35-0.43,0.7c0.02,1.65,0,3.29,0.01,4.94
			c0.02,1.85,0.68,3.46,2.03,4.72C23.58,20.89,25.42,22.48,27.29,24.14z"/>
		<path class="st26" d="M20.73,35.71c0-0.62,0-1.2,0-1.81c6.26,0,12.5,0,18.76,0c0,0.61,0,1.19,0,1.81
			C33.25,35.71,27.01,35.71,20.73,35.71z"/>
		<path class="st26" d="M20.73,41.35c0-0.62,0-1.2,0-1.81c6.26,0,12.5,0,18.76,0c0,0.61,0,1.19,0,1.81
			C33.25,41.35,27.01,41.35,20.73,41.35z"/>
		<path class="st26" d="M20.73,47c0-0.63,0-1.21,0-1.81c6.25,0,12.47,0,18.74,0c0,0.58,0,1.18,0,1.81C33.24,47,27.01,47,20.73,47z"
			/>
		<path class="st26" d="M39.49,50.85c0,0.62,0,1.2,0,1.81c-6.25,0-12.47,0-18.74,0c0-0.58,0-1.17,0-1.81
			C26.97,50.85,33.2,50.85,39.49,50.85z"/>
		<path class="st26" d="M18.79,33.91c0,0.62,0,1.2,0,1.81c-1.23,0-2.44,0-3.69,0c0-0.58,0-1.17,0-1.81
			C16.3,33.91,17.52,33.91,18.79,33.91z"/>
		<path class="st26" d="M15.1,39.54c1.24,0,2.45,0,3.69,0c0,0.6,0,1.18,0,1.81c-1.21,0-2.42,0-3.69,0
			C15.1,40.78,15.1,40.18,15.1,39.54z"/>
		<path class="st26" d="M15.1,45.17c1.24,0,2.43,0,3.67,0c0,0.6,0,1.2,0,1.83c-1.21,0-2.43,0-3.67,0
			C15.1,46.39,15.1,45.78,15.1,45.17z"/>
		<path class="st26" d="M18.79,50.85c0,0.62,0,1.2,0,1.81c-1.23,0-2.44,0-3.69,0c0-0.58,0-1.17,0-1.81
			C16.31,50.85,17.53,50.85,18.79,50.85z"/>
		<path class="st26" d="M24.03,14.03c0.45-0.46,0.86-0.88,1.3-1.33c0.61,0.65,1.22,1.3,1.85,1.97c1.61-1.63,3.13-3.18,4.66-4.72
			c0.54,0.53,0.97,0.96,1.42,1.41c-1.77,1.77-3.52,3.53-5.29,5.27c-0.42,0.41-0.91,0.43-1.31,0.04
			C25.76,15.81,24.89,14.91,24.03,14.03z"/>
	</g>
</g>
</svg>
