<?xml version="1.0" encoding="utf-8"?>
<!-- Generator: Adobe Illustrator 27.9.0, SVG Export Plug-In . SVG Version: 6.00 Build 0)  -->
<svg version="1.1" xmlns="http://www.w3.org/2000/svg" xmlns:xlink="http://www.w3.org/1999/xlink" x="0px" y="0px"
	 viewBox="0 0 54.88 54.87" style="enable-background:new 0 0 54.88 54.87;" xml:space="preserve">
<style type="text/css">
	.st0{fill:#ECEEF6;}
	.st1{fill:#154873;}
	.st2{fill:#202B51;}
	.st3{clip-path:url(#SVGID_00000016035031527004039050000014788025380892470431_);}
	.st4{fill:url(#SVGID_00000003097813381670714790000014607102342636316595_);}
	.st5{fill:url(#SVGID_00000168825228269621995620000012979451002848047538_);}
	.st6{clip-path:url(#SVGID_00000016035031527004039050000014788025380892470431_);fill:#F9F9F9;}
	.st7{clip-path:url(#SVGID_00000016035031527004039050000014788025380892470431_);fill:#CACCCF;}
	.st8{opacity:0.86;clip-path:url(#SVGID_00000016035031527004039050000014788025380892470431_);fill:#154873;}
	.st9{opacity:0.25;clip-path:url(#SVGID_00000016035031527004039050000014788025380892470431_);}
	.st10{fill:url(#SVGID_00000130632991630324013120000015517212652449510282_);}
	.st11{fill:url(#SVGID_00000042736435252300565320000010892482256191158718_);}
	.st12{fill:url(#SVGID_00000080203038751388694570000014107480168121384893_);}
	.st13{fill:url(#SVGID_00000147198350640067545380000017107667572113401226_);}
	.st14{fill:url(#SVGID_00000046322437001934142030000015351890566720678794_);}
	.st15{fill:url(#SVGID_00000142885691445323386200000003829158223946243483_);}
	.st16{fill:url(#SVGID_00000105406788166459423700000001499463521077631664_);}
	.st17{fill:url(#SVGID_00000011753546996782609720000007766785784895202947_);}
	.st18{fill:url(#SVGID_00000023973448436622004720000018158614658847768489_);}
	.st19{fill:url(#SVGID_00000176752389786036962610000005828750614260764811_);}
	.st20{fill:url(#SVGID_00000000941898577322376500000013056329681213077136_);}
	.st21{fill:url(#SVGID_00000126286722282043482750000000292419759218287264_);}
	.st22{fill:url(#SVGID_00000027564695935608297310000001186805813441114295_);}
	.st23{fill:url(#SVGID_00000000219041136293581110000015004110983463656099_);}
	.st24{fill:url(#SVGID_00000125568720034837760700000002438213995916976529_);}
	.st25{fill:url(#SVGID_00000007392165358172243390000016028416056777793714_);}
	.st26{fill:#0089CB;}
	.st27{opacity:0.96;fill-rule:evenodd;clip-rule:evenodd;fill:url(#SVGID_00000058577010233451288780000008239430103956513976_);}
	.st28{fill:#1D1D1B;}
	.st29{fill:url(#SVGID_00000029013356407683430390000000027409332649777340_);}
	.st30{opacity:0.31;fill:#191F38;}
	.st31{fill:#808080;}
	.st32{fill:url(#SVGID_00000122695885771473484780000014773104280449676208_);}
	.st33{fill:none;stroke:#0089CB;stroke-width:3;stroke-miterlimit:10;}
	.st34{fill:#FFFFFF;}
	.st35{fill-rule:evenodd;clip-rule:evenodd;fill:#FFFFFF;}
	.st36{fill:none;stroke:#24B0E3;stroke-miterlimit:10;}
	.st37{fill:none;stroke:#E5E5E5;stroke-miterlimit:10;}
	.st38{fill:none;stroke:#BFBFBF;stroke-miterlimit:10;}
	.st39{fill-rule:evenodd;clip-rule:evenodd;fill:#154873;}
	.st40{fill:#E5E5E5;}
	.st41{fill:#8C8C8C;}
	.st42{fill:none;stroke:#D9D9D9;stroke-miterlimit:10;}
	.st43{fill:#D9D9D9;}
	.st44{fill:#666666;}
	.st45{fill:url(#SVGID_00000160180474805298734640000012590049899186825105_);}
	.st46{opacity:0.86;fill:#154873;}
	.st47{fill-rule:evenodd;clip-rule:evenodd;fill:none;stroke:#E4E4E4;stroke-miterlimit:10;}
	.st48{fill:none;stroke:#FFFFFF;stroke-miterlimit:10;}
	.st49{fill-rule:evenodd;clip-rule:evenodd;fill:none;stroke:#FFFFFF;stroke-miterlimit:10;}
	.st50{fill-rule:evenodd;clip-rule:evenodd;fill:#0089CB;}
	.st51{fill:#24B0E3;}
</style>
<g id="Guías">
</g>
<g id="Capa_5">
	<g>
		<path class="st26" d="M12.66,50.49c0.12,0.56,0.22,1.05,0.32,1.55c0.15,0.77-0.09,1.17-0.86,1.33c-2.25,0.49-4.5,0.97-6.75,1.45
			c-0.71,0.15-1.12-0.12-1.27-0.86c-0.8-3.8-1.6-7.6-2.4-11.39c-0.55-2.63-1.1-5.25-1.65-7.88c-0.17-0.81,0.05-1.17,0.87-1.35
			c2.21-0.49,4.42-0.97,6.64-1.44c0.83-0.18,1.18,0.07,1.37,0.93c0.17,0.78,0.34,1.55,0.52,2.39c0.52-0.29,0.98-0.58,1.46-0.82
			c3.46-1.66,6.94-1.71,10.4-0.03c1.73,0.84,3.42,1.76,5.1,2.69c1.03,0.56,2,0.56,3.04,0.02c2.14-1.12,4.34-2.14,6.44-3.33
			c2.53-1.43,5.25-1.05,7.1,1.23c1.85-0.95,3.71-1.89,5.57-2.85c0.78-0.4,1.58-0.65,2.47-0.59c1.49,0.11,2.66,0.78,3.44,2.05
			c0.79,1.29,0.41,2.86-0.91,3.75c-2.22,1.51-4.45,3-6.68,4.49c-3.67,2.46-7.36,4.88-11,7.39c-2.44,1.68-5.06,2.22-7.97,1.84
			c-3.61-0.47-7.23-0.82-10.84-1.22C15.56,49.7,14.15,50.21,12.66,50.49z M12.27,48.68c0.32-0.07,0.58-0.12,0.84-0.17
			c1.34-0.29,2.67-0.63,4.06-0.48c3.63,0.4,7.28,0.75,10.9,1.22c2.57,0.34,4.88-0.1,6.96-1.67c0.56-0.42,1.17-0.79,1.75-1.18
			c5.19-3.48,10.37-6.96,15.56-10.44c0.85-0.57,0.9-1.2,0.16-1.91c-0.76-0.73-1.87-0.92-2.86-0.42c-1.91,0.96-3.8,1.93-5.69,2.92
			c-0.18,0.09-0.34,0.35-0.37,0.55c-0.14,0.94-0.61,1.62-1.42,2.1c-3.41,2.02-6.8,4.05-10.22,6.05c-2.05,1.2-4.28,1.62-6.61,1.15
			c-2.55-0.52-5.08-1.17-7.61-1.77c-0.7-0.16-1.39-0.34-2.09-0.51c0.15-0.62,0.29-1.17,0.43-1.74c0.21,0.04,0.36,0.06,0.5,0.09
			c2.85,0.68,5.7,1.37,8.55,2.04c2.03,0.48,4,0.27,5.8-0.78c3.44-1.99,6.85-4.04,10.27-6.08c0.68-0.41,0.77-0.92,0.31-1.58
			c-0.93-1.33-2.65-1.75-4.17-0.98c-2.38,1.2-4.75,2.42-7.11,3.65c-1.58,0.82-3.13,0.78-4.69-0.08c-1.57-0.86-3.14-1.72-4.74-2.51
			c-3.68-1.83-7.2-1.52-10.58,0.8c-0.29,0.2-0.34,0.41-0.27,0.72c0.16,0.69,0.3,1.38,0.44,2.07C11.01,42.7,11.64,45.66,12.27,48.68z
			 M1.98,34.99c1.26,5.99,2.5,11.92,3.75,17.88c1.79-0.38,3.51-0.76,5.3-1.14c-1.26-5.99-2.5-11.93-3.75-17.89
			C5.5,34.23,3.79,34.6,1.98,34.99z"/>
		<path class="st26" d="M27.43,3.2c2.13-1.75,4.49-2.82,7.18-3.11c3.48-0.37,6.31,0.87,8.55,3.5c2.43,2.85,3.03,6.14,2.28,9.75
			c-0.02,0.11-0.03,0.22-0.05,0.38c1.32,0,2.61,0.01,3.9-0.02c0.15,0,0.34-0.24,0.44-0.4c0.62-1,1.52-1.51,2.69-1.38
			c1.14,0.12,1.94,0.77,2.31,1.86c0.46,1.31-0.19,2.77-1.45,3.35C52,17.71,50.45,17.24,49.77,16c-0.2-0.36-0.4-0.47-0.78-0.46
			c-1.24,0.02-2.48,0.01-3.72,0c-0.27,0-0.45,0.03-0.56,0.33c-1.47,3.98-4.01,7.24-6.89,10.26c-2.94,3.09-6.23,5.77-9.65,8.3
			c-0.45,0.33-0.87,0.45-1.35,0.09c-4.38-3.23-8.56-6.69-12.04-10.91c-2.27-2.75-4.19-5.72-5.12-9.21
			c-0.72-2.69-0.85-5.37,0.27-8.01c1.69-3.97,5.5-6.57,9.5-6.38c2.82,0.13,5.34,1.12,7.57,2.85C27.14,2.97,27.27,3.07,27.43,3.2z
			 M22.57,12.3c-0.55,0.92-1.06,1.74-1.54,2.58c-0.26,0.46-0.61,0.68-1.15,0.68c-1.92-0.02-3.85-0.01-5.77-0.01
			c-0.13,0-0.25-0.03-0.37-0.04c0-0.6,0-1.16,0-1.78c0.21,0,0.4,0,0.58,0c1.58,0,3.16-0.01,4.74,0.01c0.39,0.01,0.61-0.12,0.81-0.46
			c0.7-1.2,1.4-2.41,2.16-3.57c0.18-0.27,0.59-0.49,0.91-0.53c0.44-0.05,0.7,0.31,0.83,0.73c0.03,0.11,0.07,0.22,0.1,0.33
			c0.84,2.75,1.69,5.49,2.53,8.24c0.06,0.19,0.12,0.37,0.23,0.69c0.15-0.37,0.25-0.59,0.34-0.81c1.36-3.39,2.71-6.78,4.06-10.17
			c0.17-0.43,0.37-0.81,0.89-0.85c0.55-0.05,0.81,0.32,1.04,0.74c0.99,1.76,1.99,3.51,3.01,5.25c0.1,0.18,0.35,0.39,0.53,0.39
			c2.21,0.03,4.42,0.02,6.63,0c0.14,0,0.38-0.17,0.42-0.31c0.4-1.69,0.57-3.39,0.11-5.09c-0.89-3.3-3.91-6.76-8.52-6.47
			c-2.59,0.17-4.78,1.3-6.73,2.96c-0.87,0.74-1.06,0.74-1.94,0c-1.94-1.63-4.11-2.76-6.67-2.96c-3.37-0.25-6.44,1.66-8.02,4.91
			c-1.09,2.25-0.99,4.58-0.4,6.92c0.78,3.07,2.41,5.7,4.35,8.15c3.13,3.96,6.91,7.24,10.91,10.28c0.27,0.2,0.54,0.4,0.84,0.62
			c1.5-1.2,2.98-2.34,4.4-3.55c3.46-2.93,6.67-6.1,9.1-9.96c0.72-1.15,1.31-2.38,2.02-3.68c-2.42,0-4.64-0.03-6.87,0.01
			c-0.73,0.01-1.16-0.26-1.5-0.88c-0.78-1.44-1.61-2.84-2.47-4.34c-0.11,0.26-0.2,0.45-0.27,0.64c-1.48,3.69-2.96,7.38-4.43,11.07
			c-0.19,0.46-0.45,0.82-0.99,0.79c-0.54-0.02-0.77-0.4-0.91-0.88c-0.47-1.59-0.97-3.16-1.46-4.75C23.6,15.61,23.1,14.01,22.57,12.3
			z M52.12,13.72c-0.49,0-0.9,0.4-0.91,0.9c-0.01,0.51,0.43,0.94,0.94,0.92c0.49-0.02,0.89-0.44,0.88-0.93
			C53.02,14.12,52.61,13.72,52.12,13.72z"/>
		<path class="st26" d="M7.25,15.53c-2.43,0-4.8,0-7.22,0c0-0.59,0-1.16,0-1.78c2.39,0,4.8,0,7.22,0
			C7.25,14.35,7.25,14.94,7.25,15.53z"/>
		<path class="st26" d="M6.28,37.8c-0.62,0.13-1.17,0.25-1.78,0.37c-0.13-0.59-0.25-1.15-0.38-1.77c0.59-0.13,1.15-0.25,1.77-0.39
			C6.02,36.6,6.14,37.17,6.28,37.8z"/>
	</g>
</g>
</svg>
