<?xml version="1.0" encoding="utf-8"?>
<!-- Generator: Adobe Illustrator 27.9.0, SVG Export Plug-In . SVG Version: 6.00 Build 0)  -->
<svg version="1.1" xmlns="http://www.w3.org/2000/svg" xmlns:xlink="http://www.w3.org/1999/xlink" x="0px" y="0px"
	 viewBox="0 0 30.35 30.35" style="enable-background:new 0 0 30.35 30.35;" xml:space="preserve">
<style type="text/css">
	.st0{fill:#ECEEF6;}
	.st1{fill:#154873;}
	.st2{fill:#202B51;}
	.st3{clip-path:url(#SVGID_00000136401539570878080680000000137522206189094544_);}
	.st4{fill:url(#SVGID_00000041267813938005979650000018339238824010017169_);}
	.st5{fill:url(#SVGID_00000026128716520736028880000003009139615778961306_);}
	.st6{clip-path:url(#SVGID_00000136401539570878080680000000137522206189094544_);fill:#F9F9F9;}
	.st7{clip-path:url(#SVGID_00000136401539570878080680000000137522206189094544_);fill:#CACCCF;}
	.st8{opacity:0.86;clip-path:url(#SVGID_00000136401539570878080680000000137522206189094544_);fill:#154873;}
	.st9{opacity:0.25;clip-path:url(#SVGID_00000136401539570878080680000000137522206189094544_);}
	.st10{fill:url(#SVGID_00000085955828209779313820000001962701044631138235_);}
	.st11{fill:url(#SVGID_00000173140580286752307670000008293948696127729823_);}
	.st12{fill:url(#SVGID_00000132071348782270974100000003761087150675930780_);}
	.st13{fill:url(#SVGID_00000159449093590230008930000007990669561756317089_);}
	.st14{fill:url(#SVGID_00000003806103081720757500000005227792678090877346_);}
	.st15{fill:url(#SVGID_00000174596488994844545110000003101998755361833347_);}
	.st16{fill:url(#SVGID_00000103225068967979150950000016997359591272297352_);}
	.st17{fill:url(#SVGID_00000005960593828661183530000001953584429955962032_);}
	.st18{fill:url(#SVGID_00000057117535954633208400000010566426501885649313_);}
	.st19{fill:url(#SVGID_00000126299727826108850710000012608228109831398583_);}
	.st20{fill:url(#SVGID_00000076579528874093923800000002346627961846996927_);}
	.st21{fill:url(#SVGID_00000123415936224886572450000012336480001738408835_);}
	.st22{fill:url(#SVGID_00000041259552208612659460000007938246844622414764_);}
	.st23{fill:url(#SVGID_00000059285032217818842260000001081910452951337366_);}
	.st24{fill:url(#SVGID_00000113342123880338457650000000806748209042085293_);}
	.st25{fill:url(#SVGID_00000056387405521507377740000018311549891223617459_);}
	.st26{fill:#0089CB;}
	.st27{opacity:0.96;fill-rule:evenodd;clip-rule:evenodd;fill:url(#SVGID_00000085214837151310212830000008223426243237323694_);}
	.st28{fill:#1D1D1B;}
	.st29{fill:url(#SVGID_00000131354694054282161300000006152945126942185631_);}
	.st30{opacity:0.31;fill:#191F38;}
	.st31{fill:#808080;}
	.st32{fill:url(#SVGID_00000126291685669096088610000018144746851254380693_);}
	.st33{fill:none;stroke:#0089CB;stroke-width:3;stroke-miterlimit:10;}
	.st34{fill:#FFFFFF;}
	.st35{fill-rule:evenodd;clip-rule:evenodd;fill:#FFFFFF;}
	.st36{fill:none;stroke:#24B0E3;stroke-miterlimit:10;}
	.st37{fill:none;stroke:#E5E5E5;stroke-miterlimit:10;}
	.st38{fill:none;stroke:#BFBFBF;stroke-miterlimit:10;}
	.st39{fill-rule:evenodd;clip-rule:evenodd;fill:#154873;}
	.st40{fill:#E5E5E5;}
	.st41{fill:#8C8C8C;}
	.st42{fill:none;stroke:#D9D9D9;stroke-miterlimit:10;}
	.st43{fill:#D9D9D9;}
	.st44{fill:#666666;}
	.st45{fill:url(#SVGID_00000173130048326693790490000009912781909423393456_);}
	.st46{opacity:0.86;fill:#154873;}
	.st47{fill-rule:evenodd;clip-rule:evenodd;fill:none;stroke:#E4E4E4;stroke-miterlimit:10;}
	.st48{fill:none;stroke:#FFFFFF;stroke-miterlimit:10;}
	.st49{fill-rule:evenodd;clip-rule:evenodd;fill:none;stroke:#FFFFFF;stroke-miterlimit:10;}
	.st50{fill-rule:evenodd;clip-rule:evenodd;fill:#0089CB;}
	.st51{fill:#24B0E3;}
</style>
<g id="Guías">
</g>
<g id="Capa_5">
	<g>
		<g>
			<circle class="st26" cx="15.18" cy="15.18" r="15.18"/>
		</g>
		<g>
			<path class="st34" d="M18.74,23.7h-7.13c-2.74,0-4.96-2.23-4.96-4.96v-7.13c0-2.74,2.23-4.96,4.96-4.96h7.13
				c2.74,0,4.96,2.23,4.96,4.96v7.13C23.7,21.48,21.48,23.7,18.74,23.7z M11.61,8.14c-1.91,0-3.47,1.56-3.47,3.47v7.13
				c0,1.91,1.56,3.47,3.47,3.47h7.13c1.91,0,3.47-1.56,3.47-3.47v-7.13c0-1.91-1.56-3.47-3.47-3.47H11.61z"/>
			<path class="st34" d="M15.18,19.54c-2.4,0-4.36-1.96-4.36-4.36c0-2.4,1.96-4.36,4.36-4.36s4.36,1.96,4.36,4.36
				C19.54,17.58,17.58,19.54,15.18,19.54z M15.18,12.31c-1.58,0-2.87,1.29-2.87,2.87s1.29,2.87,2.87,2.87s2.87-1.29,2.87-2.87
				S16.76,12.31,15.18,12.31z"/>
			<circle class="st34" cx="19.73" cy="10.62" r="1.04"/>
		</g>
	</g>
</g>
</svg>
