<?xml version="1.0" encoding="utf-8"?>
<!-- Generator: Adobe Illustrator 27.9.0, SVG Export Plug-In . SVG Version: 6.00 Build 0)  -->
<svg version="1.1" xmlns="http://www.w3.org/2000/svg" xmlns:xlink="http://www.w3.org/1999/xlink" x="0px" y="0px"
	 viewBox="0 0 179.81 65.03" style="enable-background:new 0 0 179.81 65.03;" xml:space="preserve">
<style type="text/css">
	.st0{fill:#ECEEF6;}
	.st1{fill:#154873;}
	.st2{fill:#202B51;}
	.st3{clip-path:url(#SVGID_00000137091477290195618800000005189979482481365890_);}
	.st4{fill:url(#SVGID_00000163058936576888373870000000928851370585116841_);}
	.st5{fill:url(#SVGID_00000133514196827975577590000003363845993050725529_);}
	.st6{clip-path:url(#SVGID_00000137091477290195618800000005189979482481365890_);fill:#F9F9F9;}
	.st7{clip-path:url(#SVGID_00000137091477290195618800000005189979482481365890_);fill:#CACCCF;}
	.st8{opacity:0.86;clip-path:url(#SVGID_00000137091477290195618800000005189979482481365890_);fill:#154873;}
	.st9{opacity:0.25;clip-path:url(#SVGID_00000137091477290195618800000005189979482481365890_);}
	.st10{fill:url(#SVGID_00000132074141419752466250000017137368775142530746_);}
	.st11{fill:url(#SVGID_00000122717574046895505710000008040034854266423482_);}
	.st12{fill:url(#SVGID_00000053540789615984342780000009153413421995645093_);}
	.st13{fill:url(#SVGID_00000111152830196225783620000008011276826621546683_);}
	.st14{fill:url(#SVGID_00000102512358686750485960000001847272988955727010_);}
	.st15{fill:url(#SVGID_00000011021746857925007380000003141080024773793668_);}
	.st16{fill:url(#SVGID_00000121999513358715235060000003065119741194444707_);}
	.st17{fill:url(#SVGID_00000031187245728921053730000001631657829392679073_);}
	.st18{fill:url(#SVGID_00000000909863604202785730000012009535061445757100_);}
	.st19{fill:url(#SVGID_00000170266560007301692780000012910290635710626951_);}
	.st20{fill:url(#SVGID_00000126318597662792090700000000857170654376928919_);}
	.st21{fill:url(#SVGID_00000049197974577443984490000000279098113422202302_);}
	.st22{fill:url(#SVGID_00000179612123189685456960000007034603159904942779_);}
	.st23{fill:url(#SVGID_00000163783975468717728660000007401113304161643424_);}
	.st24{fill:url(#SVGID_00000019645938307272007580000013612333879007366332_);}
	.st25{fill:url(#SVGID_00000096751017726961072610000017798782497537750936_);}
	.st26{fill:#0089CB;}
	.st27{opacity:0.96;fill-rule:evenodd;clip-rule:evenodd;fill:url(#SVGID_00000102502196818902555150000002179455743052101282_);}
	.st28{fill:#1D1D1B;}
	.st29{fill:url(#SVGID_00000176008402630807116810000004897424032216533382_);}
	.st30{opacity:0.31;fill:#191F38;}
	.st31{fill:#808080;}
	.st32{fill:url(#SVGID_00000028298926518763815130000015048722360744536211_);}
	.st33{fill:none;stroke:#0089CB;stroke-width:3;stroke-miterlimit:10;}
	.st34{fill:#FFFFFF;}
	.st35{fill-rule:evenodd;clip-rule:evenodd;fill:#FFFFFF;}
	.st36{fill:none;stroke:#24B0E3;stroke-miterlimit:10;}
	.st37{fill:none;stroke:#E5E5E5;stroke-miterlimit:10;}
	.st38{fill:none;stroke:#BFBFBF;stroke-miterlimit:10;}
	.st39{fill-rule:evenodd;clip-rule:evenodd;fill:#154873;}
	.st40{fill:#E5E5E5;}
	.st41{fill:#8C8C8C;}
	.st42{fill:none;stroke:#D9D9D9;stroke-miterlimit:10;}
	.st43{fill:#D9D9D9;}
	.st44{fill:#666666;}
	.st45{fill:url(#SVGID_00000135668273308857653950000008151771905863714203_);}
	.st46{opacity:0.86;fill:#154873;}
	.st47{fill-rule:evenodd;clip-rule:evenodd;fill:none;stroke:#E4E4E4;stroke-miterlimit:10;}
	.st48{fill:none;stroke:#FFFFFF;stroke-miterlimit:10;}
	.st49{fill-rule:evenodd;clip-rule:evenodd;fill:none;stroke:#FFFFFF;stroke-miterlimit:10;}
	.st50{fill-rule:evenodd;clip-rule:evenodd;fill:#0089CB;}
	.st51{fill:#24B0E3;}
</style>
<g id="Guías">
</g>
<g id="Capa_5">
	<g>
		<g>
			
				<linearGradient id="SVGID_00000060724721725233338970000013313270691265216668_" gradientUnits="userSpaceOnUse" x1="70.7682" y1="32.5158" x2="16.1372" y2="32.5158">
				<stop  offset="0.0253" style="stop-color:#0089CB"/>
				<stop  offset="0.4205" style="stop-color:#1D70AF"/>
				<stop  offset="1" style="stop-color:#22376C"/>
			</linearGradient>
			<path style="fill:url(#SVGID_00000060724721725233338970000013313270691265216668_);" d="M69.35,0H53.72L33.43,17.85V0.05H12.01
				L5.05,9.16h17.24V27.4c-4.72,3.7-10,7.76-12.15,9.19c-0.1,0.06-8.77,6.9-9.84,11.94c-0.85,3.99,0,9.44,4.93,12.77
				c2.7,1.82,5.31,3.02,9.95,3.57c0.96,0.11,1.86,0.16,2.72,0.16c4.76,0,7.96-1.59,9.89-3.05c5.76-4.36,5.69-11.61,5.68-12.65v-3.68
				l19.38,18.54l15.23,0L33.43,31.08L69.35,0z M22.28,50.56c0,5.21-3.11,6.39-7.56,5.83c-4.45-0.56-5.05-3.49-4.28-6.11
				c0.82-2.8,9.49-8.95,11.29-10.29c0.22-0.15,0.42-0.34,0.55-0.44v2.25C22.38,43.83,22.28,47.16,22.28,50.56z"/>
			<polygon class="st30" points="22.27,27.4 22.28,39.55 19.95,41.25 19.92,29.25 			"/>
			<polygon class="st30" points="33.46,17.8 33.49,31.05 36.37,28.55 36.45,15.19 			"/>
			<polygon class="st30" points="33.49,31.05 36.38,33.91 36.38,48.38 33.43,45.63 			"/>
		</g>
		<g>
			<g>
				<path class="st2" d="M66.63,34.02l-0.96-2.69h-5.08l-0.96,2.69h-3.15l5.41-13.33h2.49l5.41,13.33H66.63z M63.12,24.18
					l-1.69,4.74h3.37L63.12,24.18z"/>
				<path class="st2" d="M82.52,30.37c0-2.59-7.7-0.92-7.7-5.84c0-2.74,2.55-4.04,4.98-4.04c2.74,0,5.21,1.21,5.31,4.25h-2.84
					c-0.16-1.39-0.96-1.84-2.43-1.84c-0.82,0-1.98,0.39-1.98,1.39c0,2.37,7.7,0.67,7.7,5.74c0,3.14-2.8,4.29-5.53,4.29
					c-2.94,0-5.62-1.45-5.64-4.7h2.98c0.08,1.59,1.33,2.31,2.78,2.31C81.07,31.94,82.52,31.57,82.52,30.37z"/>
				<path class="st2" d="M98.97,34.02h-7.72V20.69h7.72v2.67h-4.78V26h4.59v2.67h-4.59v2.69h4.78V34.02z"/>
				<path class="st2" d="M112.78,30.37c0-2.59-7.7-0.92-7.7-5.84c0-2.74,2.55-4.04,4.98-4.04c2.74,0,5.21,1.21,5.31,4.25h-2.84
					c-0.16-1.39-0.96-1.84-2.43-1.84c-0.82,0-1.98,0.39-1.98,1.39c0,2.37,7.7,0.67,7.7,5.74c0,3.14-2.8,4.29-5.53,4.29
					c-2.94,0-5.62-1.45-5.64-4.7h2.98c0.08,1.59,1.33,2.31,2.78,2.31C111.33,31.94,112.78,31.57,112.78,30.37z"/>
				<path class="st2" d="M127.87,34.21c-3.68,0-6.86-3.17-6.86-6.86c0-3.68,3.18-6.86,6.86-6.86c3.68,0,6.86,3.17,6.86,6.86
					C134.73,31.04,131.56,34.21,127.87,34.21z M127.87,23.41c-2.06,0-3.92,1.86-3.92,3.92c0,2.06,1.86,3.94,3.92,3.94
					c2.06,0,3.92-1.88,3.92-3.94C131.79,25.28,129.93,23.41,127.87,23.41z"/>
				<path class="st2" d="M143.46,34.02h-2.94V20.69h2.21h0.73h2.06c2.16,0,4.08,1.74,4.08,4.27c0,2.25-1.35,3.74-3.04,4.16l3.82,4.9
					h-3.72l-3.17-4.76h-0.02V34.02z M143.46,23v3.94h1.57c0.86,0,1.76-0.71,1.76-1.98c0-1.21-0.9-1.96-1.76-1.96H143.46z"/>
				<path class="st2" d="M162.96,34.02h-7.72V20.69h7.72v2.67h-4.78V26h4.59v2.67h-4.59v2.69h4.78V34.02z"/>
				<path class="st2" d="M176.77,30.37c0-2.59-7.7-0.92-7.7-5.84c0-2.74,2.55-4.04,4.98-4.04c2.74,0,5.21,1.21,5.31,4.25h-2.84
					c-0.16-1.39-0.96-1.84-2.43-1.84c-0.82,0-1.98,0.39-1.98,1.39c0,2.37,7.7,0.67,7.7,5.74c0,3.14-2.8,4.29-5.53,4.29
					c-2.94,0-5.62-1.45-5.64-4.7h2.98c0.08,1.59,1.33,2.31,2.78,2.31C175.32,31.94,176.77,31.57,176.77,30.37z"/>
			</g>
			<g>
				<path class="st31" d="M61.1,45.34l-0.62-1.57h-2.53l-0.62,1.57h-0.64l2.53-6.16l2.53,6.16H61.1z M60.26,43.22l-1.05-2.65
					l-1.05,2.65H60.26z"/>
				<path class="st31" d="M67.68,43c-0.12,0.7-0.47,1.28-1.03,1.73c-0.56,0.45-1.19,0.68-1.89,0.68c-0.41,0-0.79-0.08-1.15-0.23
					c-0.36-0.16-0.68-0.37-0.94-0.64c-0.27-0.27-0.48-0.58-0.64-0.95c-0.16-0.36-0.23-0.75-0.23-1.16s0.08-0.8,0.23-1.16
					c0.16-0.36,0.37-0.68,0.64-0.95c0.27-0.27,0.58-0.48,0.94-0.64c0.36-0.16,0.73-0.23,1.09-0.23c0.69,0,1.3,0.2,1.83,0.59
					c0.53,0.39,0.89,0.9,1.08,1.54h-0.63c-0.18-0.47-0.47-0.84-0.88-1.12c-0.4-0.28-0.85-0.42-1.34-0.42c-0.66,0-1.21,0.23-1.68,0.7
					c-0.46,0.46-0.7,1.02-0.7,1.68c0,0.65,0.23,1.21,0.69,1.68s1.02,0.7,1.68,0.7c0.52,0,1-0.15,1.42-0.45
					c0.42-0.3,0.72-0.7,0.89-1.2h-2.34v-0.52h3L67.68,43z"/>
				<path class="st31" d="M68.76,45.34v-5.76h3.42v0.55h-2.83v2.05h2.75v0.56h-2.75v2.05h2.83v0.55H68.76z"/>
				<path class="st31" d="M74.05,45.34h-0.59v-6.13l3.24,4.6v-4.24h0.59v6.12l-3.24-4.6V45.34z"/>
				<path class="st31" d="M78.1,39.56h1.4h0.59h1.4v0.55h-1.4v5.21h-0.59v-5.21h-1.4V39.56z"/>
				<path class="st31" d="M82.29,45.34v-5.76h3.42v0.55h-2.83v2.05h2.75v0.56h-2.75v2.05h2.83v0.55H82.29z"/>
				<path class="st31" d="M93.52,43.62c-0.16,0.35-0.37,0.66-0.63,0.91c-0.27,0.25-0.58,0.45-0.94,0.6
					c-0.36,0.14-0.75,0.22-1.16,0.22h-1.51v-5.76h1.51c0.41,0,0.8,0.07,1.16,0.22s0.68,0.34,0.94,0.6c0.27,0.25,0.48,0.56,0.63,0.91
					c0.16,0.35,0.23,0.74,0.23,1.16S93.67,43.26,93.52,43.62z M92.48,40.82c-0.45-0.43-1.01-0.64-1.68-0.64h-0.93v4.58h0.93
					c0.67,0,1.22-0.21,1.68-0.64c0.46-0.44,0.69-0.99,0.69-1.64C93.17,41.8,92.94,41.25,92.48,40.82z"/>
				<path class="st31" d="M94.77,45.34v-5.76h3.42v0.55h-2.83v2.05h2.75v0.56h-2.75v2.05h2.83v0.55H94.77z"/>
				<path class="st31" d="M101.59,41.11c0-0.54,0.19-0.95,0.57-1.21c0.38-0.27,0.82-0.4,1.33-0.4c1.12,0,1.79,0.42,2,1.25h-0.64
					c-0.11-0.5-0.57-0.75-1.36-0.75c-0.56,0-0.95,0.17-1.17,0.5c-0.08,0.12-0.13,0.28-0.12,0.47c0,0.35,0.19,0.63,0.58,0.82
					c0.18,0.1,0.57,0.22,1.15,0.37c0.59,0.15,1.01,0.32,1.28,0.51c0.37,0.26,0.55,0.62,0.55,1.1c0,0.58-0.23,1.02-0.69,1.31
					c-0.38,0.25-0.86,0.38-1.42,0.38c-1.28,0-2.02-0.49-2.22-1.46h0.7c0.11,0.61,0.61,0.92,1.52,0.92c0.64,0,1.09-0.18,1.35-0.54
					c0.1-0.14,0.15-0.33,0.15-0.57c0-0.24-0.09-0.44-0.28-0.59c-0.27-0.22-0.77-0.42-1.52-0.59
					C102.18,42.35,101.59,41.85,101.59,41.11z"/>
				<path class="st31" d="M106.62,45.34v-5.76h3.42v0.55h-2.83v2.05h2.75v0.56h-2.75v2.05h2.83v0.55H106.62z"/>
				<path class="st31" d="M116.95,43c-0.12,0.7-0.47,1.28-1.03,1.73c-0.56,0.45-1.19,0.68-1.89,0.68c-0.41,0-0.79-0.08-1.15-0.23
					c-0.36-0.16-0.68-0.37-0.94-0.64c-0.27-0.27-0.48-0.58-0.64-0.95s-0.23-0.75-0.23-1.16s0.08-0.8,0.23-1.16
					c0.16-0.36,0.37-0.68,0.64-0.95c0.27-0.27,0.58-0.48,0.94-0.64c0.36-0.16,0.73-0.23,1.09-0.23c0.69,0,1.3,0.2,1.83,0.59
					c0.53,0.39,0.89,0.9,1.08,1.54h-0.63c-0.18-0.47-0.47-0.84-0.88-1.12c-0.4-0.28-0.85-0.42-1.34-0.42c-0.66,0-1.21,0.23-1.68,0.7
					c-0.46,0.46-0.7,1.02-0.7,1.68c0,0.65,0.23,1.21,0.69,1.68c0.46,0.47,1.02,0.7,1.68,0.7c0.52,0,1-0.15,1.42-0.45
					c0.42-0.3,0.72-0.7,0.89-1.2h-2.34v-0.52h3L116.95,43z"/>
				<path class="st31" d="M121.58,44.91c-0.38,0.34-0.9,0.51-1.53,0.51c-0.64,0-1.16-0.17-1.54-0.51c-0.41-0.36-0.61-0.85-0.61-1.47
					v-3.86h0.59v3.94c0,0.43,0.16,0.77,0.47,1c0.27,0.2,0.64,0.31,1.09,0.31c0.7,0,1.18-0.24,1.42-0.71
					c0.08-0.16,0.13-0.36,0.13-0.59v-3.94h0.59v3.86C122.19,44.06,121.99,44.55,121.58,44.91z"/>
				<path class="st31" d="M126.48,42.57c-0.31,0.29-0.7,0.45-1.14,0.48l1.77,2.28h-0.8l-1.69-2.28h-0.69v2.28h-0.59v-5.76h1.85
					c0.51,0,0.94,0.16,1.29,0.49c0.36,0.33,0.54,0.75,0.54,1.25C127.02,41.82,126.84,42.24,126.48,42.57z M125.27,42.49
					c0.33,0,0.61-0.11,0.82-0.34c0.22-0.23,0.33-0.52,0.33-0.85c0-0.34-0.1-0.61-0.31-0.83c-0.21-0.22-0.49-0.33-0.84-0.33h-1.34
					v2.35H125.27z"/>
				<path class="st31" d="M133.39,43.59c-0.16,0.36-0.37,0.68-0.64,0.95c-0.27,0.27-0.58,0.48-0.94,0.64
					c-0.36,0.16-0.75,0.23-1.15,0.23c-0.41,0-0.79-0.08-1.15-0.23c-0.36-0.16-0.67-0.37-0.94-0.64c-0.27-0.27-0.48-0.58-0.64-0.95
					c-0.16-0.36-0.23-0.75-0.23-1.15s0.08-0.79,0.23-1.15c0.16-0.36,0.37-0.68,0.64-0.94c0.27-0.27,0.58-0.48,0.94-0.63
					c0.36-0.16,0.74-0.23,1.15-0.23c0.41,0,0.79,0.08,1.15,0.23c0.36,0.16,0.68,0.37,0.94,0.63c0.27,0.27,0.48,0.58,0.64,0.94
					c0.16,0.36,0.23,0.75,0.23,1.15S133.54,43.23,133.39,43.59z M132.33,40.77c-0.46-0.46-1.02-0.69-1.68-0.69
					c-0.65,0-1.21,0.23-1.67,0.69c-0.46,0.46-0.7,1.02-0.7,1.67c0,0.66,0.23,1.21,0.7,1.68c0.46,0.46,1.02,0.69,1.67,0.69
					c0.66,0,1.21-0.23,1.68-0.69c0.46-0.46,0.7-1.02,0.7-1.68C133.03,41.79,132.8,41.24,132.33,40.77z"/>
				<path class="st31" d="M134.48,41.11c0-0.54,0.19-0.95,0.57-1.21c0.38-0.27,0.82-0.4,1.33-0.4c1.12,0,1.79,0.42,2,1.25h-0.64
					c-0.11-0.5-0.57-0.75-1.36-0.75c-0.56,0-0.95,0.17-1.17,0.5c-0.08,0.12-0.13,0.28-0.12,0.47c0,0.35,0.19,0.63,0.58,0.82
					c0.18,0.1,0.57,0.22,1.15,0.37c0.59,0.15,1.01,0.32,1.28,0.51c0.37,0.26,0.55,0.62,0.55,1.1c0,0.58-0.23,1.02-0.69,1.31
					c-0.38,0.25-0.86,0.38-1.42,0.38c-1.28,0-2.02-0.49-2.22-1.46h0.7c0.11,0.61,0.61,0.92,1.52,0.92c0.64,0,1.09-0.18,1.35-0.54
					c0.1-0.14,0.15-0.33,0.15-0.57c0-0.24-0.09-0.44-0.28-0.59c-0.27-0.22-0.77-0.42-1.52-0.59
					C135.07,42.35,134.48,41.85,134.48,41.11z"/>
				<path class="st31" d="M144.03,45.34h-0.59v-2.71l-2.19-3.05h0.76l1.72,2.47l1.72-2.47h0.75l-2.18,3.05V45.34z"/>
				<path class="st31" d="M149.81,40.13v2.05h2.75v0.56h-2.75v2.6h-0.59v-5.76h3.42v0.55H149.81z"/>
				<path class="st31" d="M153.45,45.34v-5.76h0.59v5.76H153.45z"/>
				<path class="st31" d="M159.17,45.34l-0.62-1.57h-2.53l-0.62,1.57h-0.64l2.53-6.16l2.53,6.16H159.17z M158.34,43.22l-1.05-2.65
					l-1.05,2.65H158.34z"/>
				<path class="st31" d="M161.13,45.34h-0.59v-6.13l3.24,4.6v-4.24h0.59v6.12l-3.24-4.6V45.34z"/>
				<path class="st31" d="M169.57,44.79v0.55h-4.35l3.41-5.21h-3.24v-0.55h4.31l-3.42,5.21H169.57z"/>
				<path class="st31" d="M174.43,45.34l-0.62-1.57h-2.53l-0.62,1.57h-0.64l2.53-6.16l2.53,6.16H174.43z M173.59,43.22l-1.05-2.65
					l-1.05,2.65H173.59z"/>
				<path class="st31" d="M175.38,41.11c0-0.54,0.19-0.95,0.57-1.21c0.38-0.27,0.82-0.4,1.33-0.4c1.12,0,1.79,0.42,2,1.25h-0.64
					c-0.11-0.5-0.57-0.75-1.36-0.75c-0.56,0-0.95,0.17-1.17,0.5c-0.08,0.12-0.13,0.28-0.12,0.47c0,0.35,0.19,0.63,0.58,0.82
					c0.18,0.1,0.57,0.22,1.15,0.37c0.59,0.15,1.01,0.32,1.28,0.51c0.37,0.26,0.55,0.62,0.55,1.1c0,0.58-0.23,1.02-0.69,1.31
					c-0.38,0.25-0.86,0.38-1.42,0.38c-1.28,0-2.02-0.49-2.22-1.46h0.7c0.11,0.61,0.61,0.92,1.52,0.92c0.64,0,1.09-0.18,1.35-0.54
					c0.1-0.14,0.15-0.33,0.15-0.57c0-0.24-0.09-0.44-0.28-0.59c-0.27-0.22-0.77-0.42-1.52-0.59
					C175.96,42.35,175.38,41.85,175.38,41.11z"/>
			</g>
		</g>
	</g>
</g>
</svg>
