<?xml version="1.0" encoding="utf-8"?>
<!-- Generator: Adobe Illustrator 27.9.0, SVG Export Plug-In . SVG Version: 6.00 Build 0)  -->
<svg version="1.1" xmlns="http://www.w3.org/2000/svg" xmlns:xlink="http://www.w3.org/1999/xlink" x="0px" y="0px"
	 viewBox="0 0 24.08 24.1" style="enable-background:new 0 0 24.08 24.1;" xml:space="preserve">
<style type="text/css">
	.st0{fill:#ECEEF6;}
	.st1{fill:#154873;}
	.st2{fill:#202B51;}
	.st3{clip-path:url(#SVGID_00000174592038877407605940000017513678405611330207_);}
	.st4{fill:url(#SVGID_00000126285589924074495990000001798931970718741387_);}
	.st5{fill:url(#SVGID_00000182494929430492847370000004418652207562095489_);}
	.st6{clip-path:url(#SVGID_00000174592038877407605940000017513678405611330207_);fill:#F9F9F9;}
	.st7{clip-path:url(#SVGID_00000174592038877407605940000017513678405611330207_);fill:#CACCCF;}
	.st8{opacity:0.86;clip-path:url(#SVGID_00000174592038877407605940000017513678405611330207_);fill:#154873;}
	.st9{opacity:0.25;clip-path:url(#SVGID_00000174592038877407605940000017513678405611330207_);}
	.st10{fill:url(#SVGID_00000086678547845313247430000017107403371004522381_);}
	.st11{fill:url(#SVGID_00000075842302150168781350000018065074880704270505_);}
	.st12{fill:url(#SVGID_00000168829720354820293560000012167223549001790338_);}
	.st13{fill:url(#SVGID_00000067218468708681314400000013672173767026299039_);}
	.st14{fill:url(#SVGID_00000181071964875344312410000004699999703380287146_);}
	.st15{fill:url(#SVGID_00000060730394271307225140000015727618039005726123_);}
	.st16{fill:url(#SVGID_00000167363460197419342540000010367658393431509163_);}
	.st17{fill:url(#SVGID_00000064337756994426698750000008592562355430812299_);}
	.st18{fill:url(#SVGID_00000124852474104254954500000005621428849895791807_);}
	.st19{fill:url(#SVGID_00000118369296193041021360000000235674158941998241_);}
	.st20{fill:url(#SVGID_00000088831187928838432020000017862185999450266777_);}
	.st21{fill:url(#SVGID_00000082332468684179435100000002946887728058237317_);}
	.st22{fill:url(#SVGID_00000012450335643298091770000012578168263442764203_);}
	.st23{fill:url(#SVGID_00000076563334167875631850000014679661552429261221_);}
	.st24{fill:url(#SVGID_00000108988812549914852390000016904100937389329078_);}
	.st25{fill:url(#SVGID_00000063610514317749109700000015767887941355760517_);}
	.st26{fill:#0089CB;}
	.st27{opacity:0.96;fill-rule:evenodd;clip-rule:evenodd;fill:url(#SVGID_00000015351615146756375050000008872345501707638408_);}
	.st28{fill:#1D1D1B;}
	.st29{fill:url(#SVGID_00000057108038137815102720000014019304149057284242_);}
	.st30{opacity:0.31;fill:#191F38;}
	.st31{fill:#808080;}
	.st32{fill:url(#SVGID_00000059281803353156969660000010601676315892056753_);}
	.st33{fill:none;stroke:#0089CB;stroke-width:3;stroke-miterlimit:10;}
	.st34{fill:#FFFFFF;}
	.st35{fill-rule:evenodd;clip-rule:evenodd;fill:#FFFFFF;}
	.st36{fill:none;stroke:#24B0E3;stroke-miterlimit:10;}
	.st37{fill:none;stroke:#E5E5E5;stroke-miterlimit:10;}
	.st38{fill:none;stroke:#BFBFBF;stroke-miterlimit:10;}
	.st39{fill-rule:evenodd;clip-rule:evenodd;fill:#154873;}
	.st40{fill:#E5E5E5;}
	.st41{fill:#8C8C8C;}
	.st42{fill:none;stroke:#D9D9D9;stroke-miterlimit:10;}
	.st43{fill:#D9D9D9;}
	.st44{fill:#666666;}
	.st45{fill:url(#SVGID_00000034768215892423301180000015471507232793842079_);}
	.st46{opacity:0.86;fill:#154873;}
	.st47{fill-rule:evenodd;clip-rule:evenodd;fill:none;stroke:#E4E4E4;stroke-miterlimit:10;}
	.st48{fill:none;stroke:#FFFFFF;stroke-miterlimit:10;}
	.st49{fill-rule:evenodd;clip-rule:evenodd;fill:none;stroke:#FFFFFF;stroke-miterlimit:10;}
	.st50{fill-rule:evenodd;clip-rule:evenodd;fill:#0089CB;}
	.st51{fill:#24B0E3;}
</style>
<g id="Guías">
</g>
<g id="Capa_5">
	<g>
		<path class="st34" d="M0,12.28C0.04,9.02,1.04,6.3,3.12,3.99c1.69-1.88,3.78-3.11,6.24-3.67c2.78-0.63,5.47-0.34,8.02,0.95
			c0.83,0.42,1.58,1,2.36,1.52C20.05,3,20.1,3.25,19.94,3.47c-0.17,0.22-0.42,0.22-0.73-0.03c-0.96-0.79-2.02-1.42-3.18-1.86
			c-1.95-0.73-3.95-0.92-6-0.54C7.38,1.53,5.19,2.82,3.45,4.87c-1.3,1.54-2.12,3.33-2.45,5.32c-0.49,3.01,0.16,5.77,1.87,8.29
			c0.19,0.28,0.42,0.54,0.63,0.82c0.18,0.25,0.16,0.49-0.03,0.64c-0.2,0.15-0.43,0.1-0.63-0.14c-1.46-1.75-2.37-3.76-2.7-6.02
			C0.05,13.23,0.03,12.68,0,12.28z"/>
		<path class="st34" d="M11.75,24.1c-2.39-0.1-4.58-0.81-6.55-2.16c-0.33-0.23-0.64-0.48-0.95-0.73c-0.21-0.17-0.23-0.41-0.09-0.59
			c0.15-0.18,0.38-0.21,0.6-0.06c0.42,0.3,0.81,0.62,1.24,0.9c1.95,1.27,4.1,1.87,6.42,1.77c3.5-0.15,6.36-1.62,8.52-4.39
			c1.38-1.77,2.13-3.79,2.27-6.03c0.19-2.81-0.58-5.34-2.28-7.58c-0.12-0.16-0.24-0.3-0.36-0.46c-0.16-0.23-0.13-0.47,0.06-0.62
			c0.19-0.14,0.43-0.11,0.59,0.11c0.45,0.62,0.92,1.22,1.3,1.87c0.74,1.26,1.2,2.63,1.42,4.08c0.36,2.41,0.04,4.74-1,6.95
			c-1.1,2.33-2.79,4.13-5.02,5.4c-1.52,0.86-3.17,1.36-4.92,1.48C12.58,24.07,12.16,24.08,11.75,24.1z"/>
		<path class="st34" d="M12.47,8.03c0,0.85,0,1.69,0,2.54c0,0.17,0.06,0.25,0.2,0.35c0.2,0.14,0.38,0.32,0.52,0.52
			c0.1,0.14,0.18,0.2,0.35,0.2c1.37-0.01,2.73,0,4.1,0c0.43,0,0.63,0.13,0.64,0.41c0.01,0.29-0.2,0.43-0.65,0.43
			c-1.36,0-2.71,0-4.07,0c-0.17,0-0.27,0.04-0.37,0.2c-0.13,0.2-0.32,0.38-0.52,0.52c-0.15,0.1-0.21,0.18-0.2,0.35
			c0.01,0.13,0,0.26-0.02,0.39c-0.04,0.21-0.19,0.32-0.4,0.31c-0.21,0-0.4-0.11-0.38-0.32c0.03-0.45-0.13-0.75-0.53-0.94
			c-0.07-0.03-0.13-0.12-0.16-0.19c-0.1-0.32-0.34-0.33-0.61-0.32c-0.34,0.01-0.51-0.15-0.51-0.42c0-0.26,0.18-0.42,0.52-0.41
			c0.28,0.01,0.48-0.03,0.62-0.33c0.07-0.16,0.26-0.3,0.42-0.39c0.18-0.09,0.22-0.2,0.22-0.39c-0.01-1.65,0-3.31,0-4.96
			c0-0.43,0.13-0.63,0.41-0.64c0.29-0.01,0.43,0.2,0.43,0.65C12.47,6.39,12.47,7.21,12.47,8.03z M12.51,12.04
			c0-0.26-0.2-0.45-0.46-0.46c-0.27,0-0.47,0.21-0.47,0.47c0,0.27,0.22,0.47,0.49,0.46C12.32,12.5,12.52,12.29,12.51,12.04z"/>
		<path class="st34" d="M12.46,2.89c0,0.22,0.01,0.45,0,0.67c-0.02,0.26-0.18,0.41-0.41,0.41c-0.23,0-0.4-0.15-0.41-0.4
			c-0.02-0.45-0.01-0.91,0-1.36c0.01-0.24,0.2-0.42,0.42-0.39c0.23,0.02,0.38,0.15,0.39,0.39C12.47,2.42,12.46,2.66,12.46,2.89
			C12.46,2.89,12.46,2.89,12.46,2.89z"/>
		<path class="st34" d="M2.87,12.46c-0.22,0-0.45,0.01-0.67,0c-0.25-0.02-0.41-0.19-0.41-0.41c0-0.22,0.16-0.4,0.41-0.41
			c0.45-0.01,0.91-0.01,1.36,0c0.24,0.01,0.37,0.15,0.39,0.39c0.01,0.23-0.14,0.4-0.39,0.42C3.34,12.47,3.11,12.46,2.87,12.46
			C2.87,12.46,2.87,12.46,2.87,12.46z"/>
		<path class="st34" d="M21.19,12.46c-0.21,0-0.43,0.01-0.64,0c-0.27-0.02-0.43-0.19-0.42-0.42c0.01-0.26,0.17-0.39,0.41-0.4
			c0.45-0.01,0.89-0.01,1.34,0c0.25,0.01,0.41,0.19,0.41,0.41c0,0.22-0.16,0.39-0.41,0.41C21.66,12.47,21.43,12.46,21.19,12.46
			C21.19,12.46,21.19,12.46,21.19,12.46z"/>
		<path class="st34" d="M12.46,21.22c0,0.22,0.01,0.45,0,0.67c-0.02,0.25-0.2,0.41-0.41,0.41c-0.21,0-0.4-0.17-0.4-0.41
			c-0.02-0.45-0.01-0.89,0-1.34c0.01-0.24,0.14-0.4,0.4-0.41c0.23-0.01,0.39,0.15,0.42,0.42c0,0.02,0,0.04,0,0.06
			C12.47,20.81,12.47,21.02,12.46,21.22C12.46,21.22,12.46,21.22,12.46,21.22z"/>
		<path class="st34" d="M3.46,6.69C3.6,6.73,3.67,6.74,3.74,6.77C4,6.91,4.26,7.06,4.51,7.22C4.72,7.36,4.77,7.6,4.65,7.8
			C4.54,7.98,4.3,8.04,4.08,7.93c-0.27-0.14-0.53-0.3-0.79-0.47C3.13,7.35,3.06,7.17,3.15,7C3.22,6.87,3.37,6.78,3.46,6.69z"/>
		<path class="st34" d="M19.76,8.04c-0.12-0.11-0.3-0.2-0.33-0.32c-0.04-0.13,0.01-0.36,0.11-0.44c0.28-0.21,0.59-0.39,0.91-0.52
			c0.11-0.05,0.34,0.03,0.43,0.13c0.08,0.09,0.11,0.34,0.04,0.42C20.64,7.67,20.2,7.81,19.76,8.04z"/>
		<path class="st34" d="M8.02,19.72c-0.05,0.14-0.06,0.23-0.1,0.3c-0.14,0.25-0.28,0.5-0.43,0.75c-0.13,0.2-0.37,0.26-0.56,0.16
			c-0.19-0.11-0.28-0.34-0.17-0.55c0.14-0.28,0.29-0.57,0.48-0.81c0.09-0.11,0.31-0.17,0.45-0.14C7.83,19.45,7.92,19.62,8.02,19.72z
			"/>
		<path class="st34" d="M17.43,20.62c-0.11,0.12-0.21,0.29-0.33,0.32c-0.13,0.03-0.36-0.03-0.44-0.13c-0.2-0.26-0.38-0.56-0.5-0.86
			c-0.05-0.12,0.02-0.36,0.12-0.46c0.08-0.08,0.34-0.12,0.42-0.05C17.06,19.72,17.22,20.15,17.43,20.62z"/>
		<path class="st34" d="M7.22,3.12c0.06,0.04,0.2,0.11,0.27,0.22c0.16,0.24,0.3,0.49,0.44,0.74c0.12,0.23,0.06,0.47-0.14,0.58
			C7.59,4.77,7.34,4.71,7.2,4.49C7.05,4.25,6.9,4,6.77,3.74C6.62,3.44,6.81,3.12,7.22,3.12z"/>
		<path class="st34" d="M17.41,3.47c-0.04,0.14-0.05,0.21-0.09,0.28c-0.14,0.26-0.29,0.52-0.45,0.77c-0.13,0.2-0.33,0.25-0.54,0.15
			c-0.21-0.1-0.29-0.31-0.19-0.52c0.15-0.31,0.32-0.61,0.53-0.88c0.08-0.1,0.31-0.15,0.44-0.11C17.24,3.2,17.32,3.38,17.41,3.47z"/>
		<path class="st34" d="M3.54,17.47c-0.16-0.15-0.31-0.23-0.39-0.36c-0.1-0.17-0.04-0.36,0.12-0.47c0.28-0.18,0.56-0.37,0.87-0.49
			c0.12-0.05,0.36,0.02,0.46,0.12c0.08,0.08,0.11,0.37,0.05,0.42C4.32,16.97,3.94,17.2,3.54,17.47z"/>
		<path class="st34" d="M20.97,16.88c0,0.39-0.3,0.59-0.59,0.45c-0.28-0.14-0.55-0.3-0.82-0.47c-0.2-0.13-0.25-0.38-0.12-0.56
			c0.14-0.2,0.33-0.25,0.54-0.14c0.27,0.14,0.54,0.29,0.79,0.46C20.88,16.69,20.93,16.83,20.97,16.88z"/>
	</g>
</g>
</svg>
