<?xml version="1.0" encoding="utf-8"?>
<!-- Generator: Adobe Illustrator 27.9.0, SVG Export Plug-In . SVG Version: 6.00 Build 0)  -->
<svg version="1.1" xmlns="http://www.w3.org/2000/svg" xmlns:xlink="http://www.w3.org/1999/xlink" x="0px" y="0px"
	 viewBox="0 0 39.41 39.41" style="enable-background:new 0 0 39.41 39.41;" xml:space="preserve">
<style type="text/css">
	.st0{fill:#ECEEF6;}
	.st1{fill:#154873;}
	.st2{fill:#202B51;}
	.st3{clip-path:url(#SVGID_00000142857371133920704020000002954093929957105841_);}
	.st4{fill:url(#SVGID_00000127737730655333783700000011134669404350149808_);}
	.st5{fill:url(#SVGID_00000123440287634194577770000017194031265048169873_);}
	.st6{clip-path:url(#SVGID_00000142857371133920704020000002954093929957105841_);fill:#F9F9F9;}
	.st7{clip-path:url(#SVGID_00000142857371133920704020000002954093929957105841_);fill:#CACCCF;}
	.st8{opacity:0.86;clip-path:url(#SVGID_00000142857371133920704020000002954093929957105841_);fill:#154873;}
	.st9{opacity:0.25;clip-path:url(#SVGID_00000142857371133920704020000002954093929957105841_);}
	.st10{fill:url(#SVGID_00000042714802606061160030000015151160890677124488_);}
	.st11{fill:url(#SVGID_00000001662949632251191310000013445003265320139966_);}
	.st12{fill:url(#SVGID_00000062880307824527741390000004698470824465893816_);}
	.st13{fill:url(#SVGID_00000141422786155932787300000002747279447911214766_);}
	.st14{fill:url(#SVGID_00000008866396259656789940000002731065716467263664_);}
	.st15{fill:url(#SVGID_00000059291863870654029940000015169712674678534042_);}
	.st16{fill:url(#SVGID_00000181082717155347511660000010151965449582093222_);}
	.st17{fill:url(#SVGID_00000076564976544336130970000009666432778379624602_);}
	.st18{fill:url(#SVGID_00000170972903729274216250000005017937502054207872_);}
	.st19{fill:url(#SVGID_00000096771905984181842420000017710419125209276827_);}
	.st20{fill:url(#SVGID_00000160904871360358461900000009496171511799101075_);}
	.st21{fill:url(#SVGID_00000067940565406855545270000003694464988046073778_);}
	.st22{fill:url(#SVGID_00000181066897386310644590000016051356152410224039_);}
	.st23{fill:url(#SVGID_00000131356509840859299310000017242161251712000924_);}
	.st24{fill:url(#SVGID_00000026881232774648165610000014511570435628157094_);}
	.st25{fill:url(#SVGID_00000029042848974708549220000010989283040865895101_);}
	.st26{fill:#0089CB;}
	.st27{opacity:0.96;fill-rule:evenodd;clip-rule:evenodd;fill:url(#SVGID_00000054985322796267827000000012304154649768882081_);}
	.st28{fill:#1D1D1B;}
	.st29{fill:url(#SVGID_00000031903374733510895690000012233604109321633679_);}
	.st30{opacity:0.31;fill:#191F38;}
	.st31{fill:#808080;}
	.st32{fill:url(#SVGID_00000156567595480161772190000005168406309643620286_);}
	.st33{fill:none;stroke:#0089CB;stroke-width:3;stroke-miterlimit:10;}
	.st34{fill:#FFFFFF;}
	.st35{fill-rule:evenodd;clip-rule:evenodd;fill:#FFFFFF;}
	.st36{fill:none;stroke:#24B0E3;stroke-miterlimit:10;}
	.st37{fill:none;stroke:#E5E5E5;stroke-miterlimit:10;}
	.st38{fill:none;stroke:#BFBFBF;stroke-miterlimit:10;}
	.st39{fill-rule:evenodd;clip-rule:evenodd;fill:#154873;}
	.st40{fill:#E5E5E5;}
	.st41{fill:#8C8C8C;}
	.st42{fill:none;stroke:#D9D9D9;stroke-miterlimit:10;}
	.st43{fill:#D9D9D9;}
	.st44{fill:#666666;}
	.st45{fill:url(#SVGID_00000008138633104478258400000000677217577983416509_);}
	.st46{opacity:0.86;fill:#154873;}
	.st47{fill-rule:evenodd;clip-rule:evenodd;fill:none;stroke:#E4E4E4;stroke-miterlimit:10;}
	.st48{fill:none;stroke:#FFFFFF;stroke-miterlimit:10;}
	.st49{fill-rule:evenodd;clip-rule:evenodd;fill:none;stroke:#FFFFFF;stroke-miterlimit:10;}
	.st50{fill-rule:evenodd;clip-rule:evenodd;fill:#0089CB;}
	.st51{fill:#24B0E3;}
</style>
<g id="Guías">
</g>
<g id="Capa_5">
	<path class="st26" d="M19.7,0L19.7,0c10.88,0,19.7,8.82,19.7,19.7v19.7H19.7C8.82,39.41,0,30.58,0,19.7v0C0,8.82,8.82,0,19.7,0z"/>
	<g>
		<g>
			<g>
				<g>
					<path class="st35" d="M22.83,25.96c-0.16,0.19-0.34,0.32-0.54,0.37c-0.26,0.06-0.49,0-0.65-0.07c-2.43-0.96-4.21-2.7-4.21-2.7
						s-1.78-1.74-2.75-4.13c-0.06-0.16-0.13-0.39-0.07-0.64c0.05-0.2,0.18-0.37,0.38-0.53c2.19-1.79,2.83-1.98,2.37-2.9
						c-2.06-4.15-2.08-4.56-2.56-4.75c-1.26-0.49-2.69,0.4-2.89,0.53c-2.03,1.27-2.46,3.93-2.42,4.85c0.13,2.82,1.68,6.7,5.06,10.36
						c3.67,3.63,7.79,5.38,10.61,5.01c0.36-0.05,3.73-0.37,4.95-2.37c0.14-0.23,1.03-1.61,0.54-2.84c-0.19-0.47-0.5-0.71-4.84-2.51
						C25.57,23.55,25.13,23.23,22.83,25.96z"/>
				</g>
			</g>
		</g>
	</g>
</g>
</svg>
